<?xml version="1.0" encoding="utf-8"?>

<!DOCTYPE svg PUBLIC "-//W3C//DTD SVG 1.1//EN" "http://www.w3.org/Graphics/SVG/1.1/DTD/svg11.dtd">

<!-- License: CC0 License. Made by SVG Repo: https://www.svgrepo.com/svg/425967/animated-icons-01 -->
<svg version="1.1" id="Icons" xmlns="http://www.w3.org/2000/svg" xmlns:xlink="http://www.w3.org/1999/xlink" 
	 width="100px" height="100px" viewBox="0 0 512 512" enable-background="new 0 0 512 512" xml:space="preserve">
<g id="Camera">
	<g>
		<g>
			<g>
				<path fill="#DDDDDD" d="M398.24878,512H113.75122C51.18805,512,0,460.81195,0,398.24878V113.75122
					C0,51.18805,51.18805,0,113.75122,0h284.49756C460.81195,0,512,51.18805,512,113.75122v284.49756
					C512,460.81195,460.81195,512,398.24878,512z"/>
			</g>
		</g>
		<g>
			<g opacity="0.1">
				<g>
					<path d="M442.5791,169h-54.31934c-7.70996-32-35.61426-54-69.52148-54h-86.28223c-33.90723,0-61.81152,22-69.52148,54
						h-62.27246C89.04688,169,80,178.04688,80,189.66211v202.31055C80,407.75586,92.4375,421,108.22168,421H438.0459
						C449.92871,421,460,410.92871,460,399.0459V185.61523C460,176.23145,451.96289,169,442.5791,169z"/>
				</g>
			</g>
			<g>
				<g>
					<path fill="#545A5B" d="M422.98166,155h-59.21158c-5.42755-32-32.33209-54-64.62906-54h-86.28206
						c-32.29695,0-59.20149,22-64.62906,54H81.06526C72.74495,155,66,161.74495,66,170.06526v202.30995
						C66,384.81885,76.18116,395,88.6248,395h329.8244C427.03769,395,434,388.03769,434,379.44922V166.01834
						C434,159.93307,429.06693,155,422.98166,155z"/>
				</g>
				<g>
					<path fill="#333333" d="M418.44922,401H88.625C72.84082,401,60,388.15918,60,372.375V170.06543
						C60,158.44971,69.4502,149,81.06543,149h62.27148c7.70996-32.04248,35.61426-54,69.52246-54h86.28125
						c33.9082,0,61.8125,21.95752,69.52246,54h54.31836C432.36523,149,440,156.63428,440,166.01855v213.43066
						C440,391.33203,430.33203,401,418.44922,401z M81.06543,161C76.06641,161,72,165.06689,72,170.06543V372.375
						C72,381.54199,79.45801,389,88.625,389h329.82422c5.2666,0,9.55078-4.28418,9.55078-9.55078V166.01855
						c0-2.76709-2.25098-5.01855-5.01855-5.01855h-59.21094c-2.92676,0-5.42578-2.11133-5.91504-4.99658
						C352.96094,127.15088,328.81738,107,299.14062,107h-86.28125c-29.67676,0-53.82031,20.15088-58.71484,49.00342
						C153.65527,158.88867,151.15625,161,148.22949,161H81.06543z"/>
				</g>
			</g>
			<g>
				<g opacity="0.3">
					<g>
						<circle fill="#FFFFFF" cx="256" cy="277.88925" r="68.189"/>
					</g>
				</g>
				<g>
					<g>
						<path fill="#7A7A7A" d="M256,339.84033c-34.21463,0-61.95107-27.73645-61.95107-61.95108S221.78537,215.93819,256,215.93819
							s61.95108,27.73643,61.95108,61.95107S290.21463,339.84033,256,339.84033z"/>
					</g>
				</g>
				<g opacity="0.1">
					<g>
						<path d="M265.6752,196.44469c-50.32404,0-91.11977,40.79573-91.11977,91.11977s40.79573,91.11978,91.11977,91.11978
							s91.11978-40.79575,91.11978-91.11978S315.99924,196.44469,265.6752,196.44469z M265.6752,347.38483
							c-33.03787,0-59.82037-26.7825-59.82037-59.82037s26.7825-59.82037,59.82037-59.82037s59.82037,26.7825,59.82037,59.82037
							S298.71307,347.38483,265.6752,347.38483z"/>
					</g>
				</g>
				<g>
					<g>
						<path fill="#333333" d="M256,186.76949c-50.32404,0-91.11977,40.79573-91.11977,91.11977S205.67596,369.00903,256,369.00903
							s91.11978-40.79575,91.11978-91.11978S306.32404,186.76949,256,186.76949z M256,337.70963
							c-33.03787,0-59.82037-26.7825-59.82037-59.82037S222.96213,218.06888,256,218.06888s59.82037,26.7825,59.82037,59.82037
							S289.03787,337.70963,256,337.70963z"/>
					</g>
				</g>
				<g opacity="0.1">
					<g>
						<path d="M352.12012,181.76367c-9.89062,0-17.9375,8.04688-17.9375,17.9375s8.04688,17.9375,17.9375,17.9375
							s17.9375-8.04688,17.9375-17.9375S362.01074,181.76367,352.12012,181.76367z"/>
					</g>
				</g>
				<g>
					<g>
						<circle fill="#FFC50D" cx="347.11978" cy="194.70128" r="12.93743"/>
					</g>
					<g>
						<path fill="#333333" d="M347.12012,212.63867c-9.89062,0-17.9375-8.04688-17.9375-17.9375s8.04688-17.9375,17.9375-17.9375
							s17.9375,8.04688,17.9375,17.9375S357.01074,212.63867,347.12012,212.63867z M347.12012,186.76367
							c-4.37695,0-7.9375,3.56055-7.9375,7.9375s3.56055,7.9375,7.9375,7.9375s7.9375-3.56055,7.9375-7.9375
							S351.49707,186.76367,347.12012,186.76367z"/>
					</g>
				</g>
				<g>
					<g opacity="0.1">
						<g>
							<path d="M318.75879,131H205.24121c-9.27734,0-16.82422,7.62598-16.82422,17s7.54688,17,16.82422,17h113.51758
								c9.27734,0,16.82422-7.62598,16.82422-17S328.03613,131,318.75879,131z"/>
						</g>
					</g>
					<g>
						<g>
							<path fill="#3F3F3F" d="M312.75848,154H199.24153c-6.53072,0-11.82469-5.46986-11.82469-12s5.29398-12,11.82469-12h113.51695
								c6.5307,0,11.82468,5.46986,11.82468,12S319.28918,154,312.75848,154z"/>
						</g>
						<g>
							<path fill="#333333" d="M312.75879,159H199.24121c-9.27734,0-16.82422-7.62598-16.82422-17s7.54688-17,16.82422-17h113.51758
								c9.27734,0,16.82422,7.62598,16.82422,17S322.03613,159,312.75879,159z M199.24121,135c-3.69922,0-6.82422,3.20557-6.82422,7
								s3.125,7,6.82422,7h113.51758c3.69922,0,6.82422-3.20557,6.82422-7s-3.125-7-6.82422-7H199.24121z"/>
						</g>
					</g>
				</g>
				<g>
					<g opacity="0.1">
						<g>
							<path d="M167,185h-58c-9.37402,0-17,7.62598-17,17s7.62598,17,17,17h58c9.37402,0,17-7.62598,17-17S176.37402,185,167,185z"
								/>
						</g>
					</g>
					<g>
						<g>
							<path fill="#F4F4F4" d="M161,208h-58c-6.62695,0-12-5.37256-12-12s5.37305-12,12-12h58c6.62695,0,12,5.37256,12,12
								S167.62695,208,161,208z"/>
						</g>
						<g>
							<path fill="#333333" d="M161,213h-58c-9.37402,0-17-7.62598-17-17s7.62598-17,17-17h58c9.37402,0,17,7.62598,17,17
								S170.37402,213,161,213z M103,189c-3.85938,0-7,3.14014-7,7s3.14062,7,7,7h58c3.85938,0,7-3.14014,7-7s-3.14062-7-7-7H103z"
								/>
						</g>
					</g>
				</g>
			</g>
			<g>
				<g>
					<g>
						<g>
							<path fill="#FFFFFF" d="M223.60742,313.57715c-1.56836,0-3.13477-0.61035-4.31152-1.82617
								c-19.37012-20.00391-18.85645-52.0376,1.14746-71.4082c20.00195-19.37109,52.03711-18.85645,71.40918,1.146
								c2.30469,2.38086,2.24414,6.1792-0.13672,8.48438c-2.37988,2.30615-6.17871,2.24414-8.48438-0.13574
								c-14.76855-15.25-39.19043-15.64355-54.44043-0.87451c-15.25,14.76807-15.64258,39.18994-0.87402,54.44043
								c2.30469,2.38037,2.24414,6.17871-0.13672,8.48438C226.61523,313.01562,225.11035,313.57715,223.60742,313.57715z"/>
						</g>
					</g>
				</g>
				<g>
					<g>
						<circle fill="#FFFFFF" cx="298.66666" cy="262" r="5.83333"/>
					</g>
				</g>
			</g>
		</g>
	</g>
</g>
</svg>